<svg width="194" height="57" viewBox="0 0 194 57" fill="none" xmlns="http://www.w3.org/2000/svg">
<rect x="0.208008" y="0.581299" width="193.584" height="55.6039" rx="27.802" fill="#4799EF"/>
<path d="M58.489 36.7631C59.5849 36.7631 60.6128 36.6102 61.4028 36.3298V35.0895C60.7827 35.3444 59.6528 35.5058 58.5485 35.5058C55.1079 35.5058 52.6188 33.4245 52.6188 29.6526V29.6441C52.6188 26.1696 54.955 23.7569 58.2171 23.7569C61.5303 23.7569 63.756 25.7958 63.756 29.0494V29.0579C63.756 31.0118 63.1783 32.0397 62.3458 32.0397C61.7087 32.0397 61.2839 31.4791 61.2839 30.3577V26.28H59.8397V27.3334H59.7718C59.4489 26.5943 58.6334 26.1101 57.7159 26.1101C55.9914 26.1101 54.7681 27.5543 54.7681 29.6441V29.6526C54.7681 31.8189 55.9574 33.2715 57.7159 33.2715C58.7948 33.2715 59.6613 32.7703 60.0691 31.7424H60.1456L60.188 31.8443C60.4939 32.6854 61.2244 33.3225 62.2948 33.3225C63.9259 33.3225 65.1492 31.8104 65.1492 29.0324V29.0239C65.1492 25.0312 62.3033 22.5166 58.3106 22.5166C54.131 22.5166 51.2171 25.405 51.2171 29.6271V29.6356C51.2171 34.189 54.2584 36.7631 58.489 36.7631ZM58.0048 31.9463C56.9684 31.9463 56.3312 31.0883 56.3312 29.6696V29.6611C56.3312 28.2509 56.9599 27.4184 58.0218 27.4184C59.0837 27.4184 59.7718 28.2849 59.7718 29.6611V29.6781C59.7718 31.0713 59.0837 31.9463 58.0048 31.9463ZM73.1011 34.7412H75.004V24.1222H78.7504V22.4826H69.3462V24.1222H73.1011V34.7412ZM79.2815 37.723C81.0315 37.723 81.966 37.0094 82.6286 35.1575L85.9587 25.8043H84.0218L81.7706 33.0762H81.7111L79.4599 25.8043H77.472L80.7257 34.7497L80.5728 35.1745C80.2669 36.041 79.7912 36.2703 78.9247 36.2703C78.6783 36.2703 78.4659 36.2364 78.3215 36.2024V37.6381C78.5424 37.6805 78.9247 37.723 79.2815 37.723ZM86.8551 37.7145H88.6901V33.2376H88.7326C89.2593 34.274 90.2872 34.9196 91.553 34.9196C93.7957 34.9196 95.2654 33.1271 95.2654 30.2812V30.2727C95.2654 27.4184 93.8042 25.6344 91.5275 25.6344C90.2532 25.6344 89.2678 26.28 88.7326 27.3419H88.6901V25.8043H86.8551V37.7145ZM91.0517 33.3395C89.667 33.3395 88.6816 32.1332 88.6816 30.2812V30.2727C88.6816 28.4123 89.6585 27.206 91.0517 27.206C92.4874 27.206 93.3964 28.3698 93.3964 30.2727V30.2812C93.3964 32.1672 92.4959 33.3395 91.0517 33.3395ZM100.333 34.9196C102.499 34.9196 103.875 33.6283 104.164 32.2096L104.181 32.1162H102.44L102.414 32.1842C102.185 32.8553 101.463 33.416 100.375 33.416C98.9142 33.416 97.9882 32.4305 97.9543 30.74H104.283V30.1198C104.283 27.4353 102.746 25.6344 100.239 25.6344C97.7334 25.6344 96.1193 27.5033 96.1193 30.2982V30.3067C96.1193 33.1271 97.7079 34.9196 100.333 34.9196ZM100.248 27.138C101.446 27.138 102.312 27.8941 102.465 29.4402H97.9797C98.1412 27.9451 99.0586 27.138 100.248 27.138ZM108.297 34.7412H110.396L114.762 22.4826H112.715L109.368 32.6259H109.325L105.978 22.4826H103.931L108.297 34.7412ZM113.73 37.2473H123.202V35.5907H113.73V37.2473ZM128.873 34.9451C132.416 34.9451 134.616 32.507 134.616 28.6162V28.5992C134.616 24.7169 132.407 22.2788 128.873 22.2788C125.348 22.2788 123.13 24.7084 123.13 28.5992V28.6162C123.13 32.5155 125.339 34.9451 128.873 34.9451ZM128.873 33.263C126.545 33.263 125.067 31.4706 125.067 28.6162V28.5992C125.067 25.7448 126.554 23.9608 128.873 23.9608C131.201 23.9608 132.67 25.7533 132.67 28.5992V28.6162C132.67 31.4451 131.226 33.263 128.873 33.263ZM136.574 34.7412H138.418V27.2654H140.202V25.8043H138.384V24.8868C138.384 24.0967 138.774 23.6975 139.598 23.6975C139.828 23.6975 140.057 23.7144 140.236 23.7399V22.3807C139.989 22.3382 139.581 22.3042 139.208 22.3042C137.39 22.3042 136.574 23.1198 136.574 24.8528V25.8043H135.342V27.2654H136.574V34.7412ZM142.007 34.7412H143.85V27.2654H145.634V25.8043H143.816V24.8868C143.816 24.0967 144.207 23.6975 145.031 23.6975C145.261 23.6975 145.49 23.7144 145.668 23.7399V22.3807C145.422 22.3382 145.014 22.3042 144.64 22.3042C142.822 22.3042 142.007 23.1198 142.007 24.8528V25.8043H140.775V27.2654H142.007V34.7412ZM147.899 24.428C148.502 24.428 148.969 23.9523 148.969 23.3746C148.969 22.7885 148.502 22.3127 147.899 22.3127C147.304 22.3127 146.828 22.7885 146.828 23.3746C146.828 23.9523 147.304 24.428 147.899 24.428ZM146.981 34.7412H148.816V25.8043H146.981V34.7412ZM154.376 34.9196C156.526 34.9196 158.021 33.5434 158.216 31.7509L158.225 31.6914H156.458L156.449 31.7594C156.228 32.7278 155.506 33.382 154.376 33.382C152.958 33.382 152.015 32.2351 152.015 30.2812V30.2727C152.015 28.3613 152.941 27.172 154.368 27.172C155.566 27.172 156.245 27.9111 156.441 28.7861L156.458 28.854H158.208L158.199 28.7946C158.046 27.1125 156.653 25.6344 154.351 25.6344C151.802 25.6344 150.137 27.4268 150.137 30.2557V30.2642C150.137 33.1271 151.768 34.9196 154.376 34.9196ZM160.344 24.428C160.947 24.428 161.415 23.9523 161.415 23.3746C161.415 22.7885 160.947 22.3127 160.344 22.3127C159.75 22.3127 159.274 22.7885 159.274 23.3746C159.274 23.9523 159.75 24.428 160.344 24.428ZM159.427 34.7412H161.262V25.8043H159.427V34.7412ZM165.607 34.9026C166.788 34.9026 167.825 34.291 168.343 33.331H168.377V34.7412H170.22V28.5822C170.22 26.7897 168.835 25.6344 166.652 25.6344C164.452 25.6344 163.118 26.8152 162.991 28.3528L162.982 28.4463H164.715L164.732 28.3698C164.885 27.6562 165.539 27.155 166.601 27.155C167.74 27.155 168.377 27.7497 168.377 28.7351V29.4062L165.947 29.5506C163.832 29.6781 162.625 30.6295 162.625 32.1842V32.2011C162.625 33.8067 163.823 34.9026 165.607 34.9026ZM164.477 32.1587V32.1417C164.477 31.3856 165.089 30.9014 166.193 30.8334L168.377 30.6975V31.3941C168.377 32.5579 167.4 33.433 166.108 33.433C165.123 33.433 164.477 32.9402 164.477 32.1587ZM171.898 34.7412H173.733V22.4826H171.898V34.7412Z" fill="white"/>
<path d="M41.7267 21.2015C40.8653 21.5794 39.9475 21.8298 38.9906 21.9514C39.975 21.3637 40.7264 20.4401 41.0796 19.3269C40.1618 19.8741 39.1484 20.2606 38.0685 20.4763C37.197 19.5483 35.9549 18.9736 34.6 18.9736C31.971 18.9736 29.8546 21.1075 29.8546 23.7233C29.8546 24.0997 29.8864 24.4616 29.9646 24.8062C26.0169 24.6136 22.5237 22.7216 20.1771 19.8393C19.7674 20.5501 19.5271 21.3637 19.5271 22.2395C19.5271 23.884 20.374 25.3418 21.6363 26.1858C20.8734 26.1713 20.125 25.9498 19.4909 25.6009C19.4909 25.6154 19.4909 25.6342 19.4909 25.653C19.4909 27.9606 21.1369 29.8772 23.2953 30.3188C22.9088 30.4245 22.4876 30.4751 22.0504 30.4751C21.7464 30.4751 21.4395 30.4578 21.1514 30.3941C21.7666 32.2745 23.5125 33.657 25.5884 33.7019C23.9728 34.9657 21.9215 35.7272 19.7009 35.7272C19.3114 35.7272 18.9379 35.7098 18.5645 35.662C20.6679 37.0185 23.1607 37.7929 25.849 37.7929C34.5869 37.7929 39.3641 30.5547 39.3641 24.2807C39.3641 24.0708 39.3569 23.8681 39.3468 23.6669C40.2892 22.9981 41.081 22.1628 41.7267 21.2015Z" fill="white"/>
</svg>
