<svg width="830" height="379" viewBox="0 0 830 379" fill="none" xmlns="http://www.w3.org/2000/svg">
  <path opacity="0.0344828"
    d="M369.505 153.769C397.743 158.198 461.566 167.149 463.337 150.297C464.181 142.268 424.296 133.171 410.718 101.246"
    stroke="#17BCFF" stroke-width="2.34751" stroke-linecap="round" />
  <path opacity="0.0689655"
    d="M369.148 152.91C396.88 158.752 459.609 170.915 462.223 154.409C463.469 146.545 424.446 135.493 412.634 103.337"
    stroke="#20B6FE" stroke-width="2.32022" stroke-linecap="round" />
  <path opacity="0.103448"
    d="M368.961 152.042C396.115 159.258 457.591 174.543 461.017 158.425C462.65 150.745 424.583 137.804 414.524 105.511"
    stroke="#28AFFE" stroke-width="2.29292" stroke-linecap="round" />
  <path opacity="0.137931"
    d="M368.941 151.178C395.451 159.722 455.521 178.032 459.726 162.341C461.729 154.865 424.709 140.103 416.383 107.769"
    stroke="#30A8FE" stroke-width="2.26562" stroke-linecap="round" />
  <path opacity="0.172414"
    d="M369.089 150.325C394.89 160.151 453.408 181.381 458.356 166.153C460.713 158.898 424.824 142.389 418.21 110.105"
    stroke="#38A1FE" stroke-width="2.23833" stroke-linecap="round" />
  <path opacity="0.206897"
    d="M369.401 149.494C394.433 160.551 451.258 184.589 456.913 169.859C459.607 162.84 424.93 144.663 419.999 112.518"
    stroke="#419BFD" stroke-width="2.21103" stroke-linecap="round" />
  <path opacity="0.241379"
    d="M369.876 148.693C394.08 160.928 449.081 187.656 455.404 173.455C458.416 166.689 425.027 146.923 421.746 115.004"
    stroke="#4994FD" stroke-width="2.18373" stroke-linecap="round" />
  <path opacity="0.275862"
    d="M370.508 147.932C393.832 161.288 446.884 190.582 453.835 176.939C457.147 170.438 425.116 149.17 423.448 117.559"
    stroke="#518DFD" stroke-width="2.15644" stroke-linecap="round" />
  <path opacity="0.310345"
    d="M371.295 147.219C393.687 161.639 444.674 193.368 452.213 180.31C455.805 174.088 425.197 151.403 425.102 120.181"
    stroke="#5986FD" stroke-width="2.12914" stroke-linecap="round" />
  <path opacity="0.344828"
    d="M372.233 146.562C393.646 161.985 442.459 196.015 450.545 183.565C454.397 177.632 425.271 153.621 426.703 122.866"
    stroke="#6280FC" stroke-width="2.10184" stroke-linecap="round" />
  <path opacity="0.37931"
    d="M373.317 145.97C393.709 162.334 440.248 198.524 448.837 186.703C452.93 181.07 425.341 155.825 428.251 125.609"
    stroke="#6A79FC" stroke-width="2.07455" stroke-linecap="round" />
  <path opacity="0.413793"
    d="M374.542 145.451C393.873 162.691 438.047 200.898 447.097 189.724C451.408 184.399 425.405 158.015 429.741 128.407"
    stroke="#7272FC" stroke-width="2.04725" stroke-linecap="round" />
  <path opacity="0.448276"
    d="M375.902 145.011C394.137 163.062 435.865 203.139 445.33 192.626C449.84 187.617 425.466 160.19 431.173 131.255"
    stroke="#7B6CFB" stroke-width="2.01995" stroke-linecap="round" />
  <path opacity="0.482759"
    d="M377.392 144.658C394.5 163.452 433.706 205.249 443.544 195.411C448.231 190.724 425.523 162.35 432.543 134.15"
    stroke="#8365FB" stroke-width="1.99266" stroke-linecap="round" />
  <path opacity="0.517241"
    d="M379.005 144.399C394.958 163.869 431.579 207.232 441.745 198.078C446.589 193.717 425.578 164.495 433.85 137.088"
    stroke="#8B5EFB" stroke-width="1.96536" stroke-linecap="round" />
  <path opacity="0.551724"
    d="M380.735 144.24C395.51 164.316 429.49 209.091 439.94 200.628C444.919 196.596 425.631 166.627 435.093 140.063"
    stroke="#9357FB" stroke-width="1.93806" stroke-linecap="round" />
  <path opacity="0.586207"
    d="M382.575 144.185C396.152 164.799 427.445 210.829 438.134 203.062C443.228 199.362 425.684 168.743 436.269 143.073"
    stroke="#9C51FA" stroke-width="1.91077" stroke-linecap="round" />
  <path opacity="0.62069"
    d="M384.517 144.242C396.881 165.323 425.449 212.451 436.335 205.382C441.522 202.013 425.737 170.845 437.379 146.111"
    stroke="#A44AFA" stroke-width="1.88347" stroke-linecap="round" />
  <path opacity="0.655172"
    d="M386.555 144.414C397.695 165.893 423.509 213.961 434.548 207.588C439.808 204.551 425.791 172.932 438.422 149.175"
    stroke="#AC43FA" stroke-width="1.85617" stroke-linecap="round" />
  <path opacity="0.689655"
    d="M388.681 144.707C398.588 166.514 421.63 215.364 432.78 209.683C438.092 206.976 425.846 175.006 439.396 152.259"
    stroke="#B53DF9" stroke-width="1.82888" stroke-linecap="round" />
  <path opacity="0.724138"
    d="M390.886 145.124C399.558 167.189 419.816 216.665 431.035 211.67C436.38 209.29 425.904 177.065 440.303 155.36"
    stroke="#BD36F9" stroke-width="1.80158" stroke-linecap="round" />
  <path opacity="0.758621"
    d="M393.163 145.668C400.599 167.922 418.073 217.868 429.32 213.55C434.679 211.493 425.965 179.112 441.141 158.473"
    stroke="#C52FF9" stroke-width="1.77428" stroke-linecap="round" />
  <path opacity="0.793103"
    d="M395.504 146.342C401.71 168.718 416.405 218.979 427.641 215.328C432.995 213.588 426.03 181.145 441.914 161.594"
    stroke="#CD28F9" stroke-width="1.74699" stroke-linecap="round" />
  <path opacity="0.827586"
    d="M397.9 147.15C402.883 169.58 414.815 220.003 426.002 217.005C431.332 215.577 426.099 183.165 442.618 164.719"
    stroke="#D622F8" stroke-width="1.71969" stroke-linecap="round" />
  <path opacity="0.862069"
    d="M400.343 148.092C404.114 170.511 413.307 220.946 424.407 218.586C429.696 217.462 426.173 185.173 443.257 167.844"
    stroke="#DE1BF8" stroke-width="1.69239" stroke-linecap="round" />
  <path opacity="0.896552"
    d="M402.826 149.171C405.4 171.513 411.885 221.813 422.863 220.074C428.094 219.246 426.253 187.169 443.831 170.965"
    stroke="#E614F8" stroke-width="1.6651" stroke-linecap="round" />
  <path opacity="0.931035"
    d="M405.339 150.387C406.734 172.589 410.552 222.611 421.374 221.474C426.53 220.932 426.34 189.154 444.341 174.078"
    stroke="#EE0DF8" stroke-width="1.6378" stroke-linecap="round" />
  <path opacity="0.965517"
    d="M407.873 151.741C408.112 173.741 409.308 223.345 419.942 222.788C425.009 222.523 426.434 191.127 444.79 177.179"
    stroke="#F707F7" stroke-width="1.6105" stroke-linecap="round" />
  <path
    d="M410.421 153.232C409.529 174.972 408.157 224.022 418.573 224.022C423.535 224.022 426.534 193.09 445.177 180.265"
    stroke="#FF00F7" stroke-width="1.58321" stroke-linecap="round" />
  <path
    d="M237.623 206.695H245.279V179.851H255.866V173.612H227.036V179.851H237.623V206.695ZM294.5 173.612H286.986L278.148 188.311L269.31 173.612H261.181L273.989 194.88V206.695H281.645V194.974L294.5 173.612ZM318.081 173.612H303.761V206.695H311.417V197.574H318.081C326.919 197.574 332.449 192.989 332.449 185.617C332.449 178.197 326.919 173.612 318.081 173.612ZM317.656 191.335H311.417V179.851H317.656C322.335 179.851 324.698 181.978 324.698 185.617C324.698 189.209 322.335 191.335 317.656 191.335ZM351.904 200.551V192.895H367.264V186.94H351.904V179.756H369.296V173.612H344.295V206.695H369.911V200.551H351.904Z"
    fill="url(#paint0_linear_2_16)" />
  <path
    d="M480.113 206.695H495.142C505.965 206.695 513.385 200.173 513.385 190.154C513.385 180.134 505.965 173.612 495.142 173.612H480.113V206.695ZM487.769 200.41V179.898H494.764C501.334 179.898 505.634 183.821 505.634 190.154C505.634 196.487 501.334 200.41 494.764 200.41H487.769ZM549.796 206.695H557.83L543.037 173.612H535.475L520.73 206.695H528.575L531.506 199.606H546.865L549.796 206.695ZM533.963 193.793L539.209 181.127L544.455 193.793H533.963ZM583.203 207.262C593.6 207.262 601.304 200.031 601.304 190.154C601.304 180.276 593.6 173.045 583.203 173.045C572.758 173.045 565.102 180.323 565.102 190.154C565.102 199.984 572.758 207.262 583.203 207.262ZM583.203 200.74C577.295 200.74 572.853 196.44 572.853 190.154C572.853 183.868 577.295 179.567 583.203 179.567C589.111 179.567 593.553 183.868 593.553 190.154C593.553 196.44 589.111 200.74 583.203 200.74Z"
    fill="url(#paint1_linear_2_16)" />
  <defs>
    <linearGradient id="paint0_linear_2_16" x1="226.847" y1="189.5" x2="372.127" y2="189.5"
      gradientUnits="userSpaceOnUse">
      <stop stop-color="#88DFFC" />
      <stop offset="1" stop-color="#E77EF0" />
    </linearGradient>
    <linearGradient id="paint1_linear_2_16" x1="476.19" y1="189.5" x2="603.153" y2="189.5"
      gradientUnits="userSpaceOnUse">
      <stop stop-color="#88DFFC" />
      <stop offset="1" stop-color="#E77EF0" />
    </linearGradient>
  </defs>
</svg>